<?xml version="1.0" encoding="utf-8"?>
<!-- Generator: Adobe Illustrator 21.0.2, SVG Export Plug-In . SVG Version: 6.00 Build 0)  -->
<svg version="1.1" id="Lager_1" xmlns="http://www.w3.org/2000/svg" xmlns:xlink="http://www.w3.org/1999/xlink" x="0px" y="0px"
	 width="141.7px" height="141.7px" viewBox="0 0 141.7 141.7" style="enable-background:new 0 0 141.7 141.7;" xml:space="preserve"
	>
<style type="text/css">
	.st0{fill:#182871;}
	.st1{fill:#FFFFFF;}
</style>
<rect class="st0" width="141.7" height="141.7"/>
<g>
	<g>
		<polygon class="st1" points="91.2,56 88.1,56 92.4,63.8 96.6,56 94.1,56 94.1,54 102.9,54 102.9,56 100,56 94.1,66.7 87.3,66.7 
			81.3,56 78.4,56 78.4,54 91.2,54 		"/>
	</g>
	<g>
		<polygon class="st1" points="34.6,56 31.6,56 35.9,63.8 40.1,56 37.6,56 37.6,54 46.3,54 46.3,56 43.4,56 37.6,66.7 30.7,66.7 
			24.8,56 21.9,56 21.9,54 34.6,54 		"/>
	</g>
	<g>
		<path class="st1" d="M67,56h-3v-2h11.8v2h-3v8.8c0.5,0,2,0,2.7,0c1,0,1.5-0.1,2-0.4c0.4-0.2,0.7-0.4,1-0.7
			c0.8-0.8,1.2-1.9,1.2-2.9c0.5,0,1.5,0,1.9,0v5.9H64v-2c0,0,2.8,0,3,0V56z"/>
	</g>
	<path class="st1" d="M54.2,65c2.2,0,3.1-2.4,3.1-4.7c0-2.4-1.1-4.6-3.1-4.6S51,57.9,51,60.3C51.1,62.7,52.1,65,54.2,65L54.2,65z
		 M45.2,60.3c0-3.7,3.1-6.6,9-6.6s9.1,2.9,9.1,6.6s-3,6.7-9,6.7C48.2,67.1,45.2,64.1,45.2,60.3z"/>
	<path class="st1" d="M110.7,65c2.2,0,3.1-2.4,3.1-4.7c0-2.4-1.1-4.6-3.1-4.6s-3.2,2.2-3.2,4.6C107.6,62.7,108.6,65,110.7,65
		L110.7,65z M101.7,60.3c0-3.7,3.1-6.6,9-6.6s9.1,2.9,9.1,6.6s-3,6.7-9,6.7C104.7,67.1,101.7,64.1,101.7,60.3z"/>
</g>
<g>
	<path class="st1" d="M30.4,88l-2.6-7.7H30l1.1,3.7c0.3,1,0.4,1.5,0.5,2.1l0,0c0.1-0.5,0.2-1.1,0.5-2.1l1-3.7h2.2L32.8,88H30.4z"/>
	<path class="st1" d="M40.1,88.2c-2.4,0-4-1.6-4-4s1.7-4.1,4.1-4.1s4,1.6,4,4C44.1,86.6,42.4,88.2,40.1,88.2z M40.1,81.8
		c-1.2,0-2,0.9-2,2.3s0.7,2.3,2,2.3s2-0.9,2-2.3C42.1,82.8,41.3,81.8,40.1,81.8z"/>
	<path class="st1" d="M45.7,80.3h2v6h3.4V88h-5.4V80.3z"/>
	<path class="st1" d="M53.8,88l-2.6-7.7h2.2l1.1,3.7c0.3,1,0.4,1.5,0.5,2.1l0,0c0.1-0.5,0.2-1.1,0.5-2.1l1-3.7h2.2L56.1,88H53.8z"/>
	<path class="st1" d="M63.3,88.2c-2.4,0-4-1.6-4-4s1.7-4.1,4.1-4.1s4,1.6,4,4C67.4,86.6,65.7,88.2,63.3,88.2z M63.4,81.8
		c-1.2,0-2,0.9-2,2.3s0.7,2.3,2,2.3c1.2,0,2-0.9,2-2.3C65.4,82.8,64.6,81.8,63.4,81.8z"/>
	<path class="st1" d="M77.1,88v-0.7l0,0c-0.5,0.5-1.1,0.9-2.2,0.9c-2.1,0-3.8-1.5-3.8-4c0-2.4,1.7-4.1,4.1-4.1
		c1.6,0,2.7,0.5,3.4,1.4l-1.5,1.3c-0.4-0.6-1.1-1-2-1c-1.2,0-2,0.9-2,2.3s0.7,2.3,2,2.3c1.1,0,1.6-0.6,1.6-1.3V85h-1.5v-1.5h3.4v4.3
		h-1.5V88z"/>
	<path class="st1" d="M85.3,88l-1.5-2.6h-1.2V88h-2v-7.7c1.1,0,2.5,0,3.4,0c1.5,0,3.3,0.5,3.3,2.5c0,1.1-0.6,1.9-1.5,2.3l1.9,2.9
		L85.3,88L85.3,88z M82.6,83.8c0.4,0,0.9,0,1.3,0c1,0,1.3-0.5,1.3-1s-0.3-0.9-1.4-0.9c-0.5,0-0.9,0-1.3,0v1.9H82.6z"/>
	<path class="st1" d="M92.6,88.2c-2.4,0-4-1.6-4-4s1.7-4.1,4.1-4.1s4,1.6,4,4C96.7,86.6,95,88.2,92.6,88.2z M92.7,81.8
		c-1.2,0-2,0.9-2,2.3s0.7,2.3,2,2.3c1.2,0,2-0.9,2-2.3C94.6,82.8,93.9,81.8,92.7,81.8z"/>
	<path class="st1" d="M100.1,84.7c0,1,0.5,1.7,1.6,1.7c1,0,1.6-0.6,1.6-1.7v-4.5h1.8v4.6c0,1.8-1.1,3.3-3.4,3.3
		c-2.4,0-3.5-1.4-3.5-3.3v-4.6h2v4.5H100.1z"/>
	<path class="st1" d="M107.1,80.3c1.1,0,2.1,0,3.2,0c1.8,0,3.5,0.5,3.5,2.7c0,1.9-1.5,2.7-3.6,2.7c-0.6,0-0.9,0-1.2,0v2.4h-2v-7.8
		H107.1z M110.2,81.9c-0.4,0-0.8,0-1.2,0V84c0.4,0,0.8,0,1.3,0c1.2,0,1.5-0.4,1.5-1.1C111.7,82.3,111.4,81.9,110.2,81.9z"/>
</g>
</svg>
